<svg version="1" xmlns="http://www.w3.org/2000/svg" width="905.333" height="905.333" viewBox="0 0 679.000000 679.000000"><path d="M283.2 89.5c-1.8 1.9-3.7 3.5-4.2 3.5-.6 0-1 .4-1 .9 0 1.1-44 45.1-45.1 45.1-.5 0-.9.4-.9.9 0 .4-16.4 17.2-36.4 37.3l-36.5 36.4 9.7 9.7 29.7 29.7c47.4 47.7 53.9 54 54.8 54 .6 0 .8.2.5.5-.4.4 35.9 37.5 36.8 37.5.2 0 11.9 12 17.2 17.6.7.8 1.8 1.4 2.3 1.4.5 0 .9.7.9 1.6 0 .8.5 1.2 1 .9.6-.3 1 .1 1 .9 0 .9.4 1.6.8 1.6 1.3 0 8.1 6.8 7.4 7.4-.3.3.2.6 1.1.6.8 0 1.8.8 2.2 1.7.3 1 2.3 3.1 4.5 4.8 2.1 1.6 4 3.4 4 4 .1.5 1.9 2.5 3.9 4.2l3.8 3.3 6.2-6.4c3.3-3.5 6.1-6.2 6.1-6 0 .3 1.1-.7 2.5-2.2 1.4-1.5 2.5-3.2 2.5-3.7 0-.6.2-.8.5-.5.3.3 4.6-3.6 9.5-8.7 5-5.1 9-9.2 9-9 0 .2 24.7-24.3 54.8-54.4 30.1-30 54.7-54.9 54.5-55.3-.2-.3.1-.8.6-1 1-.3 24.2-22.8 23.6-22.8-.2 0 2.3-2.5 5.6-5.7l5.9-5.6-3.5-3.5c-1.9-2-3.5-3.9-3.5-4.4 0-.4-.6-.8-1.4-.8-.8 0-1.8-.9-2.1-2-.4-1.1-1.1-1.8-1.6-1.5-.5.4-.9-.1-.9-.9 0-.9-.4-1.6-.9-1.6-.9 0-21.6-20.7-23.2-23.2-.5-.7-.9-1-.9-.7 0 1-11-10.2-11-11.2 0-.5-.7-.9-1.6-.9-.8 0-1.3-.3-1.1-.8.3-.4-.1-1.3-.9-2s-1.4-1.1-1.4-.8c0 .3-2-1.6-4.5-4.2-2.5-2.5-4.5-5-4.5-5.4 0-.4-.4-.8-.9-.8-.9 0-9.8-8.7-16.7-16.3-1.9-2-3.4-3.5-3.4-3.3 0 .2-1.7-1.2-3.8-3.3-2.1-2-3.6-3.9-3.5-4.3.2-.4-.6-.9-1.7-1.3-1.1-.3-2-1.2-2-1.9s-1-1.8-2.3-2.5c-1.2-.6-3.1-2.5-4.2-4.1-1.1-1.7-2.3-3-2.6-3-.9 0-14.9-14.3-14.9-15.2 0-.4-.6-.8-1.4-.8-.8 0-1.8-.9-2.1-2.1-.4-1.1-.9-1.8-1.3-1.5-.3.3-1.1-.3-1.9-1.4-1.4-2-2.6-2-55.6-2h-54.2l-3.3 3.5zm62.1 55.5c2 2.2 4.1 4 4.7 4 .5 0 1 .4 1 .9 0 1.3 10.8 11.9 11.5 11.3.3-.3.5-.1.5.5 0 1.2 26 27.3 27.2 27.3.4 0 .8.4.8.9 0 1.1 20.1 21.1 21.2 21.1.5 0 .6.4.3 1-.3.5-.1 1 .6 1s-.2 1.4-2 3c-1.7 1.7-3.1 3.5-3.1 4 0 .6-.4 1-.9 1-1.2 0-24.1 23-24.1 24.2 0 .4-.4.8-.9.8s-9.9 9-20.9 20c-11 11-20.3 20-20.6 20-.9 0-72.6-71.8-72.6-72.6 0-.4 12.9-13.6 28.7-29.3 15.8-15.7 28.6-28.9 28.5-29.4-.1-.4.2-.7.8-.7.5 0 3.8-2.9 7.3-6.5s6.8-6.5 7.4-6.5c.5 0 2.5 1.8 4.6 4zM533 244.8c-5.2 5.3-9.8 9.6-10.2 9.4-.4-.1-.8.2-.8.8 0 1.2-40.3 41.5-41.2 41.2-.5-.1-.8.5-.8 1.4 0 .8-.4 1.2-1 .9-.5-.3-1-.2-1 .3s-6.1 6.9-13.5 14.3c-19.1 18.8-17.7 17.4-42.5 42.6-12.4 12.5-22.8 22.7-23.2 22.5-.5-.1-.8.2-.8.8 0 1.3-13.8 15-15.2 15-.6 0-.9.3-.5.6.3.3-3.9 5-9.4 10.4-5.4 5.3-9.9 10.1-9.9 10.5 0 .5 10.9 11.7 24.3 25.1 13.3 13.3 29.6 29.7 36.1 36.3 6.6 6.7 12.3 12.1 12.8 12.1s.6.4.3 1c-.3.5.2 1 1.1 1 1 0 1.5.2 1.3.5-.3.2 11.2 12.2 25.5 26.5 14.4 14.3 38.1 37.9 52.7 52.5l26.6 26.5 24.2-24.1c13.2-13.3 24.1-24.6 24.1-25.2 0-.6.2-.8.5-.5.3.3 18.1-17.1 39.6-38.6l39.1-39.2v-53.7c0-29.6-.1-54-.3-54.2-3.7-4-50.4-50.5-50.8-50.6-.3 0-3.1-2.9-6.1-6.3-3-3.4-7.2-7.5-9.2-9.1-2-1.7-3.7-3.3-3.8-3.6 0-.9-29.7-30.3-31-30.7-.5-.2-1-.8-1-1.3 0-1.2-3.7-4.9-5-4.9-.5 0-1-.4-1-.8 0-1.2-18.2-19.2-19.4-19.2-.6 0-5.4 4.4-10.6 9.8zm14.3 101c15.7 15.5 25.1 24.9 26.1 25.9.6.7 3.9 4.1 7.4 7.5 3.4 3.5 11.1 11.2 17 17.2s11.3 11.4 12 12c2.8 2.4 6.1 6.1 6.2 7.1.1 1.1-23.9 25.5-25.2 25.5-.4 0-.8.4-.8.9 0 1.1-15 16.1-16.1 16.1-.5 0-.9.4-.9.8 0 .9-9.7 11.2-10.5 11.2-.7 0-4.5 3.9-4.5 4.5 0 .8-13.4 13.5-14.2 13.5-.4 0-16.9-16.2-36.8-36.1-31.5-31.4-35.9-36.3-34.8-37.7 3.8-4.7 20.7-21 21.2-20.5.3.4.6.1.6-.5 0-1.5 5.6-7.2 7.1-7.2.7 0 1-.3.7-.6-.8-.7 2.5-4.2 3.5-3.7.4.2.7 0 .7-.6 0-1.4 18.7-20 19.4-19.3.3.3.6 0 .6-.6 0-1.1 16.7-18.2 17.8-18.2.4 0 2 1.2 3.5 2.8zM73.3 300.7L9.5 364.5l.2 53.5c.1 29.4.2 53.8.2 54.1.2 1.1 18.1 18.6 18.6 18.1.3-.3.5 0 .5.5 0 1.4 14.9 16.3 16.3 16.3.6 0 .8.2.5.5-.7.7 13.5 15.1 14.4 14.7.5-.2.8.1.8.6 0 1.3 15.1 16.2 16.3 16.2.6 0 .8.2.5.5-.6.6 29.1 30.5 30.3 30.5.5 0 .9.4.9.8 0 1.1 26.9 28.2 28 28.2 1.2 0 33.5-32.3 33.3-33.2-.2-.4.2-.8.7-.8.9 0 139.5-138.1 145.4-144.8 1.9-2.2 1.9-2.2-9-12.9-6-6-10.7-11.1-10.6-11.6.1-.4-.2-.7-.7-.7-.8 0-25.6-24.4-38.3-37.8-3.1-3.3-5.8-5.8-6-5.7-.2.2-1.4-1.2-2.8-3.1-1.4-1.8-2.9-3.4-3.5-3.4-.5 0-1.9-1.3-3-2.9-1.1-1.7-2.1-2.9-2.2-2.7-.1.1-23.4-22.9-51.7-51.2l-51.5-51.3-63.8 63.8zm130.8 123.6c-3.3 3.2-6.1 6-6.1 6.1 0 .6-11.4 11.6-12 11.6-.4 0-1.2 1.1-1.9 2.4-.7 1.3-2.4 3-3.7 3.7-1.3.7-2.4 1.7-2.5 2.3 0 .6-2.7 3.3-5.9 6.1-3.2 2.7-5.9 5.3-5.9 5.7-.1 1-10.4 10.8-11.3 10.8-.4 0-.8.4-.8.8 0 1.4-15.7 16.5-17.4 16.8-.8.1-1.8-.6-2.1-1.7-.4-1-1-1.9-1.4-1.9-1.1 0-14.1-13.2-14.1-14.3 0-.6-.2-.8-.5-.5-.6.5-17.5-16.2-17.5-17.4 0-.4-.3-.8-.8-.8-1.1 0-14.2-13-14.2-14.1 0-.5-.4-.9-.9-.9-.6 0-17.1-16.1-20.9-20.4-.2-.2 16.1-16.8 36.2-37l36.6-36.5 36.6 36.6 36.6 36.7-6.1 5.9z"/></svg>